<svg width="2746" height="2746" viewBox="0 0 2746 2746" fill="none" xmlns="http://www.w3.org/2000/svg">
<ellipse cx="1373.25" cy="1547.22" rx="1001.25" ry="1001.22" fill="#FBF3D2"/>
<path d="M774.677 859.155C821.672 715.068 894.912 621.206 930.089 588.577C1244.83 145.106 1811.03 499.553 1906.67 653.696C2002.31 807.839 1965 868.013 1994.27 1106.85C2023.54 1345.69 1990.15 1481.7 1979.22 1672.73C1968.3 1863.76 1865.86 2054.44 1828.97 2116.88C1792.07 2179.32 1655.62 2326.46 1398.39 2407.45C1237.82 2458 1040.9 2499.05 888.457 2326.05C704.14 2116.88 617 1997.11 617 1803.86C617 1566.04 620.296 1352.91 656.985 1154.67C693.674 956.423 715.934 1039.26 774.677 859.155Z" fill="#ECD0BA" stroke="#ECD0BA"/>
<path d="M1706.96 915.221C1715.25 881.92 1657.94 827.435 1628.25 804.355C1617.55 792.197 1603.4 771.219 1632.4 784.572C1668.64 801.264 1718.97 855.666 1727.05 893.377C1735.13 931.088 1720.22 982.606 1641.51 976.836C1578.54 972.22 1556.38 914.122 1564.67 889.462C1576.68 948.81 1639.23 960.763 1655.18 959.733C1671.13 958.702 1696.6 956.848 1706.96 915.221Z" fill="#423B33"/>
<path d="M838.81 1068.82C894.766 1084.34 1026.99 1136.26 1097.33 1179.49C1130.82 1241.65 926.671 1180.08 830.075 1150.94L828.693 1150.53C732.679 1121.57 703.977 1201 682.503 1179.49C661.029 1157.97 783.236 1053.42 838.81 1068.82Z" fill="#4A2E1D" fill-opacity="0.5"/>
<path d="M1538.88 1237.51C1440.36 1263.4 1438.38 1226.72 1449.71 1205.15C1494.19 1147.48 1717.24 1118.65 1772.64 1138.56C1828.04 1158.48 1910.02 1276.92 1893.95 1275.26C1877.89 1273.6 1815.48 1197.89 1740.52 1188.97C1665.55 1180.05 1662.05 1205.15 1538.88 1237.51Z" fill="#4A2E1D" fill-opacity="0.5"/>
<path fill-rule="evenodd" clip-rule="evenodd" d="M596.984 1354.03C514.744 1473.02 572.468 1591.08 611.61 1635.23C623.746 1298.34 660.13 1175.45 679.35 1110.53C683.295 1097.21 686.518 1086.32 688.658 1076.53C694.655 1049.11 716.459 1007.61 737.285 967.971C760.101 924.546 781.742 883.358 780.127 865.371C777.036 830.966 884.78 557.181 979.339 594.262C1054.99 623.928 1169.9 599.069 1217.9 582.932C1238.29 654.005 1408.87 846.007 1563.58 824.582C1635.89 814.569 1679.65 787.243 1704.47 759.91C1733.18 800.301 1778.56 810.275 1806.26 808.513C1776.27 794.504 1778.52 770.676 1783.4 760.513C1857.91 857.793 1906.46 821.273 1921.76 790.353C1910.89 812.114 1886.3 808.403 1875.28 803.775C1832.92 784.492 1867.65 705.645 1890.32 668.632C1937.99 690.112 1945.85 765.358 1960.4 904.617C1961.76 917.618 1963.17 931.178 1964.69 945.304C1974.19 1034.08 1977.71 1120.07 1980.75 1194.23C1983.37 1258.26 1985.63 1313.46 1991.07 1354.03C2000.46 1424.07 1983.98 1668.4 1964.69 1793.45C2045.28 1777.7 2052.31 1696.56 2059.85 1609.53C2062.47 1579.31 2065.15 1548.39 2070.99 1519.25C2084.68 1450.89 2111.1 1381.78 2139.09 1308.55C2157.41 1260.62 2176.4 1210.93 2192.95 1158.52C2234.77 1026.06 2210.25 902.454 2192.95 822.316C2189.71 807.318 2187.01 789.023 2183.88 767.831C2170.31 675.789 2148.69 529.107 2039.67 360.647C1905.56 153.401 1706.76 128.884 1633.63 120.231C1597.5 115.957 1550.71 123.547 1500.45 131.702C1448.96 140.055 1393.82 149.001 1342.74 146.395C1241.8 141.245 1070.6 179.975 1014.77 241.572C990.969 267.834 938.068 308.028 878.726 353.115C798.885 413.778 707.384 483.299 659.405 539.669C592.492 618.282 642.649 704.134 676.091 737.233C611.816 750.623 596.984 821.285 596.984 865.371C596.984 879.7 599.269 906.215 602.049 938.481C607.824 1005.49 615.735 1097.3 609.756 1156.26C602.669 1226.14 552.966 1231.11 529 1224.86C536.911 1269.19 577.619 1279.31 596.984 1278.83C613.135 1308.33 603.713 1341.25 596.984 1354.03ZM1677.92 660.603C1677.92 679.968 1680.56 721.87 1691.1 734.56C1644.13 755.161 1546.11 775.309 1529.8 691.092C1509.4 585.821 1638.98 609.1 1677.92 660.603Z" fill="#423B33"/>
<path d="M576 1424.87C576 1342.82 611.032 1342.46 620.539 1353.12C649.061 1353.12 648.67 1679.9 639.684 1702.51C630.698 1725.13 581.296 1701.56 590.456 1658.06C601.786 1604.25 576 1527.43 576 1424.87Z" fill="#ECD0BA"/>
<path d="M2028.24 1376.91C2010.11 1312.95 1967.03 1403.55 1947.75 1456.84C1940.74 1475.17 1900.48 1732.15 1947.75 1771.14C1995.03 1810.14 1997.37 1699.39 2003.62 1641.68C2009.87 1583.97 2050.9 1456.84 2028.24 1376.91Z" fill="#ECD0BA"/>
</svg>
